<?xml version="1.0" encoding="iso-8859-1"?>
<!-- Generator: Adobe Illustrator 21.0.2, SVG Export Plug-In . SVG Version: 6.00 Build 0)  -->
<svg version="1.1" xmlns="http://www.w3.org/2000/svg" xmlns:xlink="http://www.w3.org/1999/xlink" x="0px" y="0px"
	 viewBox="0 0 64 64" style="enable-background:new 0 0 64 64;" xml:space="preserve">
<g id="css">
</g>
<g id="mobile_development">
</g>
<g id="code">
</g>
<g id="hardware_programming">
</g>
<g id="python">
</g>
<g id="development">
</g>
<g id="update">
</g>
<g id="maintenance">
</g>
<g id="peformance_testing">
</g>
<g id="programming">
</g>
<g id="hacker">
</g>
<g id="web_programming">
</g>
<g id="html">
</g>
<g id="typing">
</g>
<g id="search_1_">
</g>
<g id="android">
</g>
<g id="coding">
</g>
<g id="file">
</g>
<g id="api">
</g>
<g id="java">
</g>
<g id="xml">
</g>
<g id="security">
</g>
<g id="algorithm">
</g>
<g id="php">
	<g>
		<path d="M44.0591,42.062h-3.5757c-0.5522,0-1,0.4478-1,1v5.7422v4.9556c0,0.5522,0.4478,1,1,1s1-0.4478,1-1v-3.9556h2.5757
			c2.1362,0,3.8745-1.7363,3.8745-3.8711S46.1953,42.062,44.0591,42.062z M44.0591,47.8042h-2.5757V44.062h2.5757
			c1.0337,0,1.8745,0.8394,1.8745,1.8711S45.0928,47.8042,44.0591,47.8042z"/>
		<path d="M35.4253,42.062c-0.5522,0-1,0.4478-1,1v4.3486h-4.8506V43.062c0-0.5522-0.4478-1-1-1s-1,0.4478-1,1v10.6978
			c0,0.5522,0.4478,1,1,1s1-0.4478,1-1v-4.3491h4.8506v4.3491c0,0.5522,0.4478,1,1,1s1-0.4478,1-1V43.062
			C36.4253,42.5098,35.9775,42.062,35.4253,42.062z"/>
		<path d="M20.6455,42.062h-3.5757c-0.5522,0-1,0.4478-1,1v5.7422v4.9556c0,0.5522,0.4478,1,1,1s1-0.4478,1-1v-3.9556h2.5757
			c2.1348,0,3.8711-1.7363,3.8711-3.8711S22.7803,42.062,20.6455,42.062z M20.6455,47.8042h-2.5757V44.062h2.5757
			c1.0317,0,1.8711,0.8394,1.8711,1.8711S21.6772,47.8042,20.6455,47.8042z"/>
		<path d="M51.4131,1H20.105c-0.2398,0-0.5301,0.1188-0.7017,0.2876L8.9868,11.5435c-0.1735,0.1709-0.2983,0.4663-0.2983,0.7124
			v46.8423c0,2.1514,1.749,3.9019,3.8984,3.9019h38.8262c2.1494,0,3.8984-1.7505,3.8984-3.9019V4.8984
			C55.3115,2.749,53.5625,1,51.4131,1z M19.105,4.3879V9.354c0,1.0488-0.853,1.9019-1.9019,1.9019h-5.0735L19.105,4.3879z
			 M53.3115,59.0981C53.3115,60.147,52.46,61,51.4131,61H12.5869c-1.0469,0-1.8984-0.853-1.8984-1.9019V13.2559h6.5146
			c2.1514,0,3.9019-1.7505,3.9019-3.9019V3h30.3081c1.0469,0,1.8984,0.8516,1.8984,1.8984V59.0981z"/>
		<path d="M48.395,23.5313H15.6084c-0.5522,0-1,0.4478-1,1s0.4478,1,1,1H48.395c0.5522,0,1-0.4478,1-1
			S48.9473,23.5313,48.395,23.5313z"/>
		<path d="M48.104,28.8662H15.6084c-0.5522,0-1,0.4478-1,1s0.4478,1,1,1H48.104c0.5522,0,1-0.4478,1-1
			S48.6563,28.8662,48.104,28.8662z"/>
		<path d="M33,35.2046c0-0.5522-0.4478-1-1-1H15.6084c-0.5522,0-1,0.4478-1,1s0.4478,1,1,1H32
			C32.5522,36.2046,33,35.7568,33,35.2046z"/>
		<path d="M48.395,18.1929H15.6084c-0.5522,0-1,0.4478-1,1s0.4478,1,1,1H48.395c0.5522,0,1-0.4478,1-1
			S48.9473,18.1929,48.395,18.1929z"/>
		<path d="M48.395,12.854H27.5547c-0.5522,0-1,0.4478-1,1s0.4478,1,1,1H48.395c0.5522,0,1-0.4478,1-1S48.9473,12.854,48.395,12.854z
			"/>
	</g>
</g>
<g id="eror">
</g>
<g id="bug">
</g>
<g id="c_x2B__x2B_">
</g>
<g id="search">
</g>
<g id="binary">
</g>
<g id="database_sql">
</g>
</svg>
