<?xml version="1.0" encoding="iso-8859-1"?>
<!-- Generator: Adobe Illustrator 21.0.2, SVG Export Plug-In . SVG Version: 6.00 Build 0)  -->
<svg version="1.1" xmlns="http://www.w3.org/2000/svg" xmlns:xlink="http://www.w3.org/1999/xlink" x="0px" y="0px"
	 viewBox="0 0 64 64" style="enable-background:new 0 0 64 64;" xml:space="preserve">
<g id="css">
</g>
<g id="mobile_development">
</g>
<g id="code">
</g>
<g id="hardware_programming">
</g>
<g id="python">
</g>
<g id="development">
</g>
<g id="update">
</g>
<g id="maintenance">
</g>
<g id="peformance_testing">
</g>
<g id="programming">
	<g>
		<path d="M19.9673,42.6768c-2.6494,0-4.8052,2.1563-4.8052,4.8057c0,2.6475,2.1558,4.8018,4.8052,4.8018
			c2.6499,0,4.8057-2.1543,4.8057-4.8018C24.7729,44.833,22.6172,42.6768,19.9673,42.6768z M19.9673,50.2842
			c-1.5469,0-2.8052-1.2568-2.8052-2.8018c0-1.4188,1.0624-2.5828,2.4313-2.7678c0.116,0.0433,0.2369,0.0735,0.3622,0.0735
			c0.1245,0,0.249-0.0288,0.3692-0.0752c1.377,0.1779,2.4482,1.345,2.4482,2.7695C22.7729,49.0273,21.5142,50.2842,19.9673,50.2842z
			"/>
		<path d="M60.0835,18.2871H31.5479c-1.5918,0-2.8872,1.2959-2.8872,2.8877v4.726c-0.8594-0.2186-1.7373-0.3402-2.6279-0.3402
			h-0.4019V22.731c2.613-2.5228,4.0757-6.6693,4.0757-11.9946C29.7065,5.3682,25.3374,1,19.9673,1s-9.7393,4.3682-9.7393,9.7363
			c0,0.2037,0.012,0.3975,0.0163,0.5977c-0.0004,0.0056-0.0038,0.01-0.0041,0.0156c-0.0009,0.014,0.0059,0.0261,0.0056,0.04
			c0.1163,5.0082,1.5541,8.9244,4.0579,11.3417v2.8292h-0.4019c-5.917,0-10.7305,4.8125-10.7305,10.7275v0.1625
			c-0.5851,0.1366-1.1282,0.4506-1.5229,0.902c-0.481,0.5498-0.6948,1.2344-0.6021,1.9268l2.3323,17.4473
			c-1.339,0.3848-2.3275,1.6072-2.3275,3.0683C1.0513,61.5625,2.4893,63,4.2568,63h31.4214c1.7671,0,3.2051-1.4375,3.2051-3.2051
			c0-1.461-0.9883-2.6834-2.327-3.0683l1.2522-9.3731h22.275c1.5942,0,2.8911-1.2969,2.8911-2.8906V21.1748
			C62.9746,19.583,61.6777,18.2871,60.0835,18.2871z M31.5479,20.2871h28.5356c0.4912,0,0.8911,0.3984,0.8911,0.8877v3.25h-30.314
			v-3.25C30.6606,20.6855,31.0586,20.2871,31.5479,20.2871z M26.0327,27.5605c0.2137,0,0.426,0.0149,0.6381,0.0305l-1.9955,5.3064
			l-3.1094-2.1064l3.459-3.2305H26.0327z M19.9673,3c4.2676,0,7.7393,3.4707,7.7393,7.7363c0,0.1381-0.0029,0.3022-0.0066,0.4705
			c-1.5608-0.6926-2.6257-1.618-2.7932-3.7791c-0.0347-0.4453-0.3599-0.8135-0.7974-0.9023
			c-0.436-0.0898-0.8809,0.1221-1.0869,0.5176c-1.8424,3.5418-7.69,3.5632-10.7805,3.4185C12.3885,6.3237,15.7925,3,19.9673,3z
			 M12.3007,12.4679c2.9764,0.1324,8.1519,0.0739,11.1138-2.6876c0.8663,2.0789,2.636,2.9664,4.1359,3.5372
			c-0.4281,3.6967-2.0046,9.2252-7.5831,10.0585C13.9404,22.4766,12.5826,16.0965,12.3007,12.4679z M19.834,25.377
			c0.0444,0.0059,0.0889,0.0088,0.1333,0.0088s0.0889-0.0029,0.1333-0.0088c1.2957-0.1742,2.4712-0.5773,3.5303-1.1666v1.9161
			l-3.6636,3.4216l-3.6636-3.4216v-1.9156C17.3628,24.8,18.5383,25.2029,19.834,25.377z M14.9097,27.5605l3.4585,3.2305
			l-3.1113,2.1074l-1.9925-5.3056c0.2113-0.0154,0.4223-0.0323,0.6375-0.0323H14.9097z M11.2692,27.968l2.5619,6.821
			c0.1074,0.2871,0.3408,0.5088,0.6328,0.6016c0.0991,0.0313,0.2017,0.0469,0.3032,0.0469c0.1978,0,0.3931-0.0586,0.5605-0.1719
			l4.6392-3.1416l4.6367,3.1416c0.1675,0.1133,0.3633,0.1719,0.561,0.1719c0.1016,0,0.2041-0.0156,0.3027-0.0469
			c0.292-0.0928,0.5254-0.3145,0.6333-0.6016l2.5601-6.808v8.3911H5.1714v-0.084C5.1714,32.3927,7.7382,29.0871,11.2692,27.968z
			 M35.6782,61H4.2568c-0.6646,0-1.2056-0.541-1.2056-1.2051c0-0.665,0.541-1.2061,1.2056-1.2061h0.2461h30.9292h0.2461
			c0.6646,0,1.2051,0.541,1.2051,1.2061C36.8833,60.459,36.3428,61,35.6782,61z M34.5566,56.5889H5.3779L3.0288,39.0137
			c-0.0156-0.1162,0.0264-0.2314,0.125-0.3447c0.1582-0.1797,0.418-0.2969,0.6616-0.2969h24.8452v6.0908
			c0,1.5938,1.2954,2.8906,2.8872,2.8906h4.2427L34.5566,56.5889z M60.0835,45.3535H36.9331h-5.3853
			c-0.4893,0-0.8872-0.3994-0.8872-0.8906v-7.0908V27.2468c0-0.0004,0-0.0008,0-0.0012v-0.8208h30.314v18.0381
			C60.9746,44.9453,60.5664,45.3535,60.0835,45.3535z"/>
		<path d="M42.8022,32.7979c-0.3472-0.4307-0.9766-0.4971-1.4063-0.1504l-3.043,2.4551c-0.2354,0.1895-0.3721,0.4756-0.3721,0.7783
			s0.1367,0.5889,0.3721,0.7783l3.043,2.4551c0.1851,0.1494,0.4067,0.2217,0.6274,0.2217c0.292,0,0.5811-0.127,0.7788-0.3721
			c0.3467-0.4297,0.2793-1.0596-0.1504-1.4063l-2.0781-1.6768l2.0781-1.6768C43.0815,33.8574,43.1489,33.2275,42.8022,32.7979z"/>
		<path d="M47.0342,32.4834c-0.522-0.1836-1.0923,0.0859-1.2778,0.6064L44.0054,38c-0.1855,0.5205,0.0859,1.0928,0.606,1.2783
			c0.1113,0.0391,0.2246,0.0576,0.3359,0.0576c0.4106,0,0.7959-0.2549,0.9419-0.6641l1.751-4.9102
			C47.8257,33.2412,47.5542,32.6689,47.0342,32.4834z"/>
		<path d="M50.2393,32.6475c-0.4292-0.3467-1.0591-0.2803-1.4063,0.1504c-0.3472,0.4297-0.2803,1.0586,0.1494,1.4063l2.0767,1.6768
			l-2.0767,1.6768c-0.4297,0.3477-0.4966,0.9766-0.1494,1.4063c0.1973,0.2451,0.4868,0.3721,0.7783,0.3721
			c0.2207,0,0.4429-0.0723,0.6279-0.2217l3.0396-2.4551c0.2349-0.1904,0.3716-0.4766,0.3716-0.7783s-0.1367-0.5879-0.3716-0.7783
			L50.2393,32.6475z"/>
		<path d="M53.7598,22.8584c0.1846,0.3164,0.5137,0.4902,0.8535,0.4902c0.1724,0,0.3481-0.0449,0.5088-0.1387
			c0.4771-0.2783,0.6333-0.8994,0.355-1.377c-0.2783-0.4756-0.8887-0.6367-1.3677-0.3604
			c-0.4771,0.2783-0.6382,0.8906-0.3599,1.3682L53.7598,22.8584z"/>
		<path d="M57.4761,22.8584c0.1846,0.3164,0.5137,0.4902,0.8535,0.4902c0.1724,0,0.3481-0.0449,0.5088-0.1387
			c0.4771-0.2783,0.6333-0.8994,0.355-1.377c-0.2783-0.4756-0.8887-0.6367-1.3677-0.3604
			c-0.4771,0.2783-0.6382,0.8906-0.3599,1.3682L57.4761,22.8584z"/>
		<path d="M50.043,22.8584c0.1846,0.3164,0.5137,0.4902,0.8535,0.4902c0.1724,0,0.3481-0.0449,0.5088-0.1387
			c0.4771-0.2783,0.6333-0.8994,0.355-1.377c-0.2778-0.4756-0.8901-0.6367-1.3677-0.3604
			c-0.4771,0.2783-0.6382,0.8906-0.3599,1.3682L50.043,22.8584z"/>
	</g>
</g>
<g id="hacker">
</g>
<g id="web_programming">
</g>
<g id="html">
</g>
<g id="typing">
</g>
<g id="search_1_">
</g>
<g id="android">
</g>
<g id="coding">
</g>
<g id="file">
</g>
<g id="api">
</g>
<g id="java">
</g>
<g id="xml">
</g>
<g id="security">
</g>
<g id="algorithm">
</g>
<g id="php">
</g>
<g id="eror">
</g>
<g id="bug">
</g>
<g id="c_x2B__x2B_">
</g>
<g id="search">
</g>
<g id="binary">
</g>
<g id="database_sql">
</g>
</svg>
